<svg id="Layer_1" enable-background="new 0 0 512 512" height="512" viewBox="0 0 512 512" width="512" xmlns="http://www.w3.org/2000/svg"><g><g><path d="m452.137 30.355c-.796-6.522-1.911-11.363-3.509-15.224-1.984-4.937-4.643-8.578-8.123-11.129-3.62-2.655-7.695-4.002-12.112-4.002h-344.787c-4.768 0-9.137 1.453-12.636 4.203-.095.074-.188.151-.28.229-3.05 2.58-5.521 6.202-7.346 10.765-.027.067-.053.134-.078.202-1.532 4.086-2.709 9.258-3.404 14.956-.658 5.396-.978 12.085-.978 20.451 0 8.217.311 14.592.981 20.094.696 5.573 1.84 10.507 3.4 14.668.025.067.051.135.078.202 1.876 4.692 4.348 8.358 7.297 10.853 3.611 3.095 8.095 4.731 12.965 4.731h112.419l.003 142.381c0 5.523 4.478 10 10 10 5.523 0 10-4.477 10-10l-.003-152.381c0-5.523-4.478-10-10-10h-122.418c-.014 0-.026 0-.038 0-.178-.192-.828-.975-1.613-2.909-.691-1.871-1.628-5.105-2.239-9.995-.567-4.649-.831-10.256-.831-17.644 0-7.547.271-13.445.831-18.03.658-5.397 1.67-8.708 2.239-10.253.563-1.382 1.063-2.136 1.364-2.511.073-.007.168-.012.287-.012l344.864.001c.019.007.091.043.209.129.006.004.588.448 1.405 2.492.018.044.036.088.054.132.596 1.43 1.452 4.33 2.146 10.021.56 4.584.831 10.482.831 18.03 0 7.388-.264 12.995-.827 17.614-.549 4.391-1.271 7.686-2.149 9.792-.019.043-.036.088-.054.132-.814 2.037-1.413 2.622-1.407 2.622h.001c-.169.124-.335.254-.496.389h-122.209c-5.522 0-10 4.477-10 10v394.762c0 .143 0 .23-.104.389-.282.262-1.245 1.028-3.603 1.858-2.335.712-6.53 1.716-13.441 2.545-6.031.724-13.711 1.092-22.826 1.092-9.116 0-16.796-.367-22.828-1.091-6.91-.829-11.105-1.833-13.44-2.545-2.359-.831-3.322-1.598-3.603-1.859-.104-.158-.104-.246-.104-.389v-152.381c0-5.523-4.478-10-10-10s-10 4.477-10 10v152.381c0 4.825 1.622 9.372 4.691 13.149.067.083.135.164.205.244 2.89 3.335 7.073 5.963 12.433 7.811.098.034.196.066.295.097 4.504 1.398 10.271 2.525 17.141 3.349 6.818.818 15.3 1.233 25.21 1.233 9.909 0 18.391-.415 25.209-1.233 6.871-.824 12.638-1.951 17.142-3.349.099-.031.197-.063.295-.097 5.359-1.848 9.543-4.476 12.433-7.811.07-.081.14-.163.207-.246 3.067-3.779 4.689-8.325 4.689-13.147v-384.762h112.419c4.509 0 8.903-1.591 12.417-4.488 3.285-2.51 5.846-6.123 7.818-11.03 1.601-3.867 2.715-8.616 3.509-14.966.667-5.472.978-11.847.978-20.064-.001-8.366-.32-15.055-.979-20.451z"/><path d="m206.032 298.735c5.522 0 10-4.477 10-10s-4.478-10-10-10h-.007c-5.522 0-9.996 4.477-9.996 10s4.481 10 10.003 10z"/></g></g></svg>